<svg width="254" height="246" viewBox="0 0 254 246" fill="none" xmlns="http://www.w3.org/2000/svg">
<path d="M54.6981 189.847C56.4088 189.294 59.4424 186.589 59.4424 186.583C59.4424 186.578 57.0018 185.206 56.8365 185.14C54.9148 184.354 50.7237 183.934 49.2012 185.654C48.9604 185.947 48.7853 186.285 48.6871 186.647C48.5889 187.009 48.5698 187.387 48.631 187.757C48.6922 188.127 48.8324 188.48 49.0425 188.794C49.2526 189.108 49.5281 189.376 49.8513 189.581C51.197 190.51 53.2156 190.311 54.6981 189.847Z" fill="#9C9C9C"/>
<path d="M86.294 163.772C86.3339 163.772 85.0395 161.322 84.9369 161.173C83.7964 159.513 80.5234 156.897 78.2767 157.517C77.9063 157.63 77.5645 157.817 77.2735 158.066C76.9825 158.316 76.7488 158.622 76.5875 158.964C76.4262 159.307 76.341 159.679 76.3373 160.055C76.3336 160.432 76.4115 160.805 76.566 161.151C77.1762 162.633 78.9724 163.551 80.4778 163.955C82.2454 164.431 86.2883 163.778 86.294 163.772Z" fill="#9C9C9C"/>
<path d="M63.6448 197.541C65.116 196.606 67.146 193.481 67.3056 193.232C69.1461 194.362 71.0625 195.371 73.042 196.252C74.1825 196.772 75.3685 197.264 76.5546 197.74C75.9844 197.596 75.4655 197.48 75.4142 197.469C73.3443 197.203 69.1874 197.873 68.1895 199.919C68.0331 200.265 67.9536 200.639 67.9564 201.016C67.9592 201.394 68.0441 201.767 68.2055 202.11C68.367 202.454 68.6014 202.76 68.8934 203.01C69.1854 203.259 69.5285 203.447 69.9001 203.559C71.4511 204.112 73.3215 203.387 74.6501 202.558C75.9787 201.728 77.7578 199.078 78.2196 198.376L79.5882 198.929C81.7835 199.775 83.9732 200.588 86.1001 201.496C86.8471 201.805 87.5712 202.143 88.3011 202.469C87.7879 202.347 87.3603 202.248 87.2918 202.242C85.2219 201.977 81.0707 202.646 80.0672 204.693C79.9108 205.038 79.8314 205.411 79.8342 205.789C79.837 206.166 79.922 206.538 80.0835 206.881C80.245 207.224 80.4794 207.531 80.7714 207.78C81.0634 208.029 81.4064 208.215 81.7778 208.327C83.3345 208.88 85.2276 208.155 86.5278 207.325C87.8279 206.496 89.4587 204.106 90.0175 203.277C90.7474 203.636 91.483 203.996 92.1786 204.383C92.6462 204.654 93.1195 204.881 93.5757 205.179L94.9328 206.026C95.771 206.579 96.6434 207.176 97.4532 207.751C98.0234 208.15 98.548 208.537 99.084 208.924C98.3427 208.609 96.8772 208.011 96.7461 207.978C94.7446 207.425 90.5307 207.464 89.2249 209.339C89.0157 209.656 88.8778 210.013 88.8204 210.385C88.763 210.758 88.7873 211.138 88.8917 211.501C88.9961 211.864 89.1783 212.201 89.4263 212.491C89.6744 212.781 89.9827 213.017 90.3311 213.183C91.7795 213.941 93.7524 213.521 95.1837 212.89C96.7404 212.199 99.1752 209.527 99.4489 209.19C100.333 209.837 101.188 210.473 101.981 211.087C104.296 212.862 106.223 214.461 107.683 215.711L108.823 214.704C107.295 213.454 105.254 211.828 102.796 210.025C101.901 209.367 100.932 208.675 99.945 207.978C100.471 206.956 100.936 205.905 101.336 204.831C103.087 205.002 106.383 204.123 106.81 204.007C107.181 205.019 107.529 206.009 107.843 206.944C108.744 209.615 109.433 211.922 109.941 213.753L111.218 212.647C110.688 210.937 110.004 208.852 109.154 206.501C108.783 205.473 108.367 204.383 107.922 203.266C108.316 203.05 111.486 201.258 112.484 199.908C113.391 198.68 114.195 196.871 113.704 195.339C113.601 194.977 113.42 194.64 113.174 194.349C112.928 194.059 112.621 193.822 112.275 193.653C111.928 193.485 111.549 193.389 111.162 193.372C110.774 193.354 110.388 193.416 110.027 193.553C107.877 194.443 107.021 198.442 107.21 200.456C107.21 200.577 107.495 201.855 107.677 202.668C107.495 202.209 107.324 201.767 107.107 201.302C106.731 200.373 106.326 199.46 105.898 198.475C105.67 198.005 105.448 197.535 105.214 197.059C104.98 196.584 104.706 196.103 104.45 195.616C103.84 194.51 103.161 193.403 102.448 192.297C103.287 191.976 106.235 190.793 107.329 189.708C108.424 188.624 109.496 186.943 109.245 185.377C109.201 185.004 109.076 184.643 108.879 184.319C108.682 183.995 108.416 183.716 108.1 183.498C107.783 183.28 107.423 183.13 107.043 183.056C106.663 182.983 106.271 182.988 105.892 183.071C103.612 183.624 102.157 187.463 102.032 189.482C102.032 189.603 102.1 191.064 102.157 191.866C101.724 191.213 101.296 190.56 100.84 189.913C99.5174 188.049 98.1146 186.202 96.729 184.354C96.3013 183.801 95.8851 183.22 95.4688 182.651C95.7653 182.54 99.3007 181.207 100.527 179.996C101.616 178.889 102.693 177.23 102.448 175.659C102.403 175.285 102.278 174.924 102.08 174.601C101.882 174.277 101.616 173.997 101.299 173.779C100.982 173.562 100.622 173.411 100.241 173.338C99.8606 173.264 99.4682 173.269 99.0897 173.353C96.8088 173.906 95.3548 177.744 95.2293 179.763C95.2293 179.918 95.3319 182.014 95.389 182.529C94.4652 181.273 93.5586 180.018 92.7146 178.746C91.5641 177.034 90.5316 175.251 89.624 173.408C89.7609 173.358 93.4559 171.981 94.7104 170.736C95.7995 169.63 96.8772 167.971 96.632 166.405C96.588 166.032 96.4632 165.671 96.2658 165.347C96.0685 165.023 95.8029 164.743 95.4866 164.526C95.1702 164.308 94.8101 164.158 94.4298 164.084C94.0494 164.01 93.6574 164.015 93.2792 164.099C90.9983 164.652 89.5442 168.491 89.4188 170.509C89.4188 170.642 89.4929 172.241 89.5499 172.999L89.4245 173.032C88.5569 171.155 87.866 169.205 87.3603 167.207C87.0695 166.101 86.8528 165.045 86.6646 164.01C87.3774 163.822 90.6561 162.932 91.8992 161.93C93.1423 160.929 94.3626 159.425 94.2998 157.826C94.2967 157.45 94.212 157.078 94.0515 156.736C93.8909 156.393 93.6579 156.087 93.3677 155.837C93.0774 155.588 92.7363 155.4 92.3665 155.286C91.9966 155.172 91.6063 155.135 91.2207 155.177C88.9113 155.492 87.0124 159.143 86.6589 161.14C86.6589 161.245 86.5677 162.367 86.5278 163.186C86.4536 162.716 86.3624 162.235 86.2997 161.781C86.0545 160.083 85.9347 158.518 85.8378 157.129C85.7922 156.338 85.7694 155.619 85.7523 154.95C86.351 154.397 88.7573 152.184 89.3845 150.785C90.0118 149.386 90.3824 147.466 89.567 146.072C89.3864 145.739 89.1354 145.446 88.8304 145.213C88.5253 144.979 88.173 144.811 87.7965 144.719C87.4199 144.626 87.0275 144.612 86.6449 144.677C86.2622 144.741 85.8978 144.883 85.5755 145.093C83.6709 146.41 83.7223 150.497 84.3552 152.428C84.4122 152.594 85.5698 155.105 85.604 155.077L85.6382 155.044C85.6382 155.686 85.6382 156.377 85.6838 157.135C85.7465 158.529 85.8264 160.105 86.0374 161.814C86.2431 163.656 86.5591 165.484 86.9839 167.29C87.4494 169.318 88.102 171.3 88.9341 173.214L88.9683 173.281C88.5235 172.777 87.2291 171.411 87.1151 171.317C85.5413 169.99 81.6923 168.325 79.7022 169.497C79.3755 169.7 79.0966 169.968 78.8837 170.283C78.6709 170.598 78.5289 170.953 78.467 171.324C78.4051 171.696 78.4248 172.076 78.5246 172.44C78.6245 172.804 78.8023 173.143 79.0465 173.435C80.0386 174.713 82.0173 175.139 83.5797 175.145C85.336 175.145 88.8029 173.624 89.0823 173.485C89.9754 175.414 91.0002 177.282 92.1501 179.077C92.8116 180.123 93.5129 181.163 94.2314 182.191C93.8323 181.771 93.473 181.395 93.416 181.345C91.8422 180.023 87.9932 178.353 86.0031 179.525C85.6764 179.729 85.3975 179.996 85.1847 180.311C84.9718 180.626 84.8298 180.981 84.768 181.352C84.7061 181.724 84.7257 182.104 84.8255 182.468C84.9254 182.832 85.1032 183.171 85.3474 183.464C86.3339 184.747 88.3182 185.167 89.8806 185.173C91.443 185.178 94.4424 183.934 95.2293 183.596C95.5087 183.989 95.7995 184.387 96.0675 184.78C97.4132 186.655 98.7647 188.53 100.059 190.4C100.51 191.064 100.926 191.727 101.342 192.391C100.989 192.015 100.686 191.705 100.635 191.661C99.0612 190.333 95.2122 188.669 93.2221 189.841C92.8958 190.045 92.6174 190.313 92.4052 190.628C92.1929 190.943 92.0514 191.298 91.9901 191.669C91.9288 192.041 91.9489 192.421 92.0492 192.785C92.1494 193.148 92.3276 193.487 92.5721 193.779C93.5586 195.057 95.5429 195.483 97.0996 195.489C98.6563 195.494 101.376 194.382 102.311 193.973C102.722 194.664 103.133 195.356 103.492 196.047C103.731 196.523 103.994 196.965 104.199 197.458C104.404 197.95 104.638 198.42 104.849 198.89C105.231 199.82 105.624 200.771 105.989 201.684C106.235 202.314 106.457 202.923 106.679 203.531C106.246 202.867 105.356 201.59 105.271 201.49C104.028 200.174 102.457 199.191 100.709 198.636C100.579 198.482 100.434 198.341 100.276 198.216C99.9839 197.968 99.6416 197.783 99.2711 197.672C98.9006 197.561 98.5101 197.526 98.1251 197.571C97.7401 197.616 97.3691 197.739 97.0363 197.932C96.7034 198.125 96.4161 198.384 96.193 198.691C94.9043 200.583 96.4667 204.377 97.7725 205.959C97.8466 206.053 98.7989 206.971 99.409 207.541L98.1203 206.728C97.2821 206.175 96.4097 205.622 95.5087 205.019L94.1345 204.2C93.6783 203.918 93.1651 203.675 92.6747 203.409C91.5343 202.812 90.3425 202.259 89.1337 201.75C89.6469 201.036 91.4145 198.475 91.7282 196.982C92.0418 195.489 91.9676 193.531 90.8671 192.341C90.6171 192.054 90.3075 191.82 89.9584 191.656C89.6092 191.492 89.2284 191.401 88.8407 191.389C88.453 191.377 88.067 191.444 87.7078 191.586C87.3486 191.729 87.0243 191.942 86.7558 192.214C85.1877 193.873 86.14 197.873 87.1778 199.626C87.2462 199.737 88.1358 200.909 88.6433 201.545C87.9134 201.236 87.1835 200.92 86.4365 200.627C84.2697 199.781 82.0515 198.968 79.8448 198.188C79.1662 197.944 78.4933 197.69 77.8205 197.441C78.0087 197.192 80.1983 194.189 80.529 192.518C80.8256 191.036 80.7742 189.067 79.668 187.878C79.418 187.59 79.1084 187.356 78.7592 187.192C78.4101 187.028 78.0293 186.937 77.6416 186.925C77.2538 186.913 76.8678 186.981 76.5087 187.123C76.1495 187.265 75.8251 187.479 75.5567 187.75C73.9886 189.41 74.9409 193.409 75.9844 195.162C76.0585 195.295 77.3472 196.982 77.695 197.375C76.2125 196.822 74.7413 196.269 73.31 195.655C71.378 194.843 69.5035 193.908 67.6991 192.856C67.7846 192.74 70.0883 189.614 70.4247 187.905C70.7155 186.423 70.6642 184.454 69.5637 183.265C69.3137 182.977 69.0041 182.743 68.6549 182.579C68.3058 182.415 67.925 182.324 67.5373 182.312C67.1495 182.3 66.7636 182.367 66.4044 182.51C66.0452 182.652 65.7208 182.866 65.4524 183.137C63.8843 184.797 64.8366 188.796 65.8744 190.549C65.9428 190.665 66.9236 191.954 67.4083 192.557L67.317 192.651C65.5284 191.547 63.8452 190.29 62.2877 188.895C61.4153 188.138 60.6284 187.369 59.8814 186.6C60.3718 186.047 62.5842 183.574 63.0689 182.064C63.5536 180.554 63.6961 178.657 62.7382 177.363C62.5208 177.051 62.2382 176.787 61.9089 176.588C61.5796 176.388 61.2108 176.259 60.8265 176.206C60.4421 176.154 60.0508 176.181 59.6777 176.285C59.3047 176.389 58.9584 176.568 58.6611 176.81C56.9162 178.314 57.4123 182.374 58.2448 184.227C58.2905 184.327 58.8721 185.3 59.3054 186.003C58.9747 185.654 58.6269 185.3 58.3133 184.957C57.1728 183.674 56.1521 182.429 55.2854 181.318C54.795 180.681 54.3673 180.101 53.9682 179.553C54.1678 178.779 54.9205 175.654 54.6353 174.132C54.3502 172.611 53.5747 170.814 52.1036 170.106C51.764 169.925 51.3889 169.815 51.0027 169.784C50.6165 169.752 50.2278 169.801 49.862 169.925C49.4962 170.049 49.1615 170.246 48.8797 170.504C48.5978 170.762 48.3751 171.075 48.2261 171.422C47.3879 173.535 49.7543 176.915 51.3737 178.187C51.5162 178.297 53.9112 179.769 53.9226 179.73C53.9238 179.713 53.9238 179.697 53.9226 179.68C54.2932 180.233 54.6981 180.787 55.1485 181.406C55.9925 182.512 56.9618 183.807 58.108 185.118C59.3286 186.544 60.6328 187.902 62.014 189.183C63.5566 190.613 65.2262 191.909 67.0034 193.055L67.0718 193.094C66.4161 192.911 64.5572 192.463 64.4089 192.446C62.339 192.181 58.1878 192.85 57.1842 194.897C57.0278 195.242 56.9484 195.616 56.9512 195.994C56.9539 196.371 57.0388 196.744 57.2003 197.088C57.3618 197.431 57.5962 197.738 57.8882 197.987C58.1802 198.237 58.5232 198.424 58.8949 198.536C60.4516 199.078 62.3447 198.376 63.6448 197.541Z" fill="#9C9C9C"/>
<path d="M170.327 57.2239C171.548 59.2041 175.944 62.108 175.95 62.108C175.955 62.108 177.044 58.7173 177.09 58.4905C177.558 55.9074 176.896 50.6417 174.239 49.2699C173.787 49.0538 173.294 48.9324 172.791 48.9135C172.288 48.8946 171.786 48.9787 171.319 49.1602C170.851 49.3418 170.429 49.6168 170.078 49.9674C169.727 50.3179 169.457 50.7361 169.284 51.1948C168.457 53.1197 169.289 55.5424 170.327 57.2239Z" fill="#9C9C9C"/>
<path d="M213.442 88.4976C213.442 88.5474 216.293 86.2519 216.447 86.086C218.311 84.1777 220.752 79.4484 219.298 76.8543C219.044 76.4323 218.701 76.0669 218.292 75.7819C217.883 75.4968 217.417 75.2985 216.924 75.1999C216.43 75.1013 215.921 75.1046 215.429 75.2095C214.937 75.3144 214.474 75.5186 214.069 75.8089C212.307 76.987 211.628 79.454 211.531 81.412C211.423 83.713 213.442 88.492 213.442 88.4976Z" fill="#9C9C9C"/>
<path d="M162.863 70.427C164.511 71.9591 169.175 73.5521 169.546 73.6738C168.605 76.2601 167.843 78.9044 167.265 81.589C166.917 83.1488 166.615 84.7363 166.336 86.3293C166.336 85.5826 166.336 84.9133 166.336 84.8193C166.085 82.2085 164.015 77.2968 161.056 76.6607C160.561 76.5673 160.052 76.576 159.561 76.6863C159.07 76.7967 158.608 77.0061 158.207 77.3009C157.805 77.5958 157.471 77.9694 157.228 78.3976C156.985 78.8257 156.838 79.2988 156.796 79.7858C156.545 81.849 158.016 83.973 159.476 85.3171C160.936 86.6612 164.904 88.1325 165.954 88.4976C165.851 89.106 165.743 89.72 165.646 90.3284C165.172 93.2655 164.716 96.1971 164.175 99.0623C163.986 100.069 163.758 101.059 163.536 102.049C163.536 101.385 163.536 100.827 163.536 100.744C163.285 98.1275 161.215 93.2213 158.256 92.5796C157.761 92.4871 157.252 92.4967 156.761 92.6077C156.271 92.7188 155.81 92.9288 155.409 93.2241C155.007 93.5195 154.675 93.8935 154.432 94.3219C154.19 94.7502 154.043 95.2233 154.002 95.7103C153.751 97.7679 155.216 99.8919 156.676 101.242C158.136 102.591 161.723 103.908 162.949 104.35C162.692 105.357 162.435 106.364 162.139 107.326C161.917 107.979 161.757 108.62 161.5 109.267L160.782 111.176C160.286 112.37 159.778 113.609 159.259 114.771C158.906 115.573 158.552 116.336 158.199 117.105C158.398 116.104 158.769 114.135 158.769 113.969C158.929 111.347 157.628 106.192 154.823 105.119C154.348 104.954 153.843 104.888 153.341 104.925C152.838 104.962 152.349 105.102 151.906 105.334C151.462 105.567 151.075 105.888 150.768 106.276C150.461 106.664 150.242 107.11 150.124 107.586C149.554 109.583 150.695 111.9 151.903 113.455C153.261 115.169 157.44 117.36 157.965 117.631C157.395 118.897 156.79 120.131 156.22 121.281C154.566 124.639 153.038 127.46 151.829 129.622L153.477 130.762C154.675 128.549 156.203 125.557 157.845 122.017C158.45 120.728 159.071 119.34 159.693 117.907C161.176 118.263 162.68 118.531 164.197 118.709C164.483 120.922 166.575 124.705 166.849 125.192C165.634 125.939 164.448 126.652 163.314 127.305C160.092 129.185 157.258 130.701 155.04 131.846L156.836 133.091C158.917 131.951 161.438 130.513 164.249 128.793C165.486 128.041 166.792 127.211 168.121 126.348C168.514 126.768 171.764 130.142 173.823 130.983C175.687 131.741 178.276 132.211 180.129 131.166C180.574 130.936 180.964 130.618 181.273 130.232C181.582 129.847 181.804 129.402 181.924 128.927C182.044 128.453 182.059 127.959 181.969 127.478C181.879 126.998 181.685 126.541 181.401 126.138C179.622 123.754 174.159 123.859 171.582 124.672C171.434 124.722 169.843 125.419 168.85 125.878C169.392 125.524 169.922 125.181 170.476 124.81C171.576 124.08 172.654 123.322 173.811 122.515L175.465 121.27C176.035 120.861 176.565 120.369 177.124 119.915C178.396 118.842 179.633 117.703 180.848 116.508C181.509 117.437 183.904 120.717 185.632 121.746C187.36 122.775 189.846 123.615 191.836 122.852C192.311 122.69 192.746 122.433 193.112 122.097C193.478 121.761 193.767 121.355 193.96 120.903C194.154 120.452 194.247 119.966 194.233 119.477C194.22 118.989 194.101 118.508 193.883 118.068C192.497 115.451 187.075 114.749 184.406 115.175C184.241 115.202 182.359 115.728 181.333 116.016C182.057 115.302 182.787 114.588 183.494 113.836C185.546 111.679 187.554 109.411 189.561 107.199C190.177 106.513 190.804 105.838 191.42 105.163C191.653 105.495 194.408 109.45 196.346 110.606C198.057 111.629 200.56 112.476 202.556 111.712C203.031 111.55 203.465 111.292 203.831 110.956C204.196 110.62 204.485 110.213 204.677 109.762C204.87 109.31 204.962 108.825 204.948 108.336C204.935 107.848 204.815 107.368 204.597 106.928C203.212 104.311 197.789 103.609 195.12 104.035C194.921 104.063 192.212 104.809 191.534 105.03C192.902 103.537 194.277 102.06 195.696 100.655C197.6 98.7526 199.628 96.9715 201.769 95.3231C201.878 95.478 204.734 99.6209 206.719 100.805C208.429 101.828 210.933 102.669 212.928 101.911C213.403 101.748 213.838 101.491 214.203 101.155C214.568 100.819 214.857 100.412 215.049 99.9603C215.242 99.509 215.334 99.0234 215.321 98.5351C215.307 98.0468 215.187 97.5668 214.97 97.1263C213.584 94.51 208.161 93.8076 205.493 94.239C205.316 94.239 203.257 94.8309 202.282 95.1185L202.203 94.9691C204.405 93.3672 206.75 91.9585 209.211 90.7598C210.556 90.085 211.879 89.5153 213.202 88.9843C213.653 89.8085 215.757 93.5531 217.422 94.8087C219.087 96.0643 221.413 97.1153 223.466 96.5732C223.956 96.4623 224.417 96.2527 224.818 95.9578C225.219 95.6629 225.552 95.2894 225.794 94.8616C226.037 94.4338 226.184 93.9612 226.226 93.4747C226.268 92.9881 226.204 92.4985 226.038 92.0376C224.954 89.2719 219.651 88.0108 216.948 88.1657C216.8 88.1657 215.312 88.4146 214.234 88.5971C214.804 88.3703 215.432 88.1214 216.002 87.9113C218.146 87.1203 220.153 86.5229 221.944 86.0085C222.959 85.7209 223.888 85.4554 224.755 85.2673C225.633 85.8536 229.197 88.1712 231.238 88.5308C233.28 88.8903 235.863 88.8018 237.436 87.3968C237.819 87.0792 238.128 86.6869 238.344 86.2456C238.56 85.8043 238.678 85.3238 238.69 84.8354C238.702 84.347 238.607 83.8616 238.413 83.4109C238.219 82.9603 237.929 82.5543 237.562 82.2196C235.281 80.2671 229.984 81.5061 227.651 82.8336C227.446 82.9497 224.51 85.1014 224.555 85.1346L224.607 85.1677C223.768 85.3558 222.867 85.5715 221.887 85.8204C220.09 86.3017 218.055 86.8603 215.888 87.607C213.543 88.3996 211.246 89.3231 209.011 90.3727C206.502 91.5299 204.104 92.8996 201.843 94.4658L201.769 94.5266C202.294 93.8352 203.708 91.855 203.799 91.6891C205.076 89.3715 206.143 84.1721 204.039 82.0537C203.678 81.7127 203.248 81.449 202.775 81.2795C202.303 81.1101 201.799 81.0387 201.297 81.07C200.794 81.1013 200.304 81.2345 199.858 81.4611C199.412 81.6877 199.02 82.0027 198.707 82.3855C197.327 83.973 197.344 86.5284 197.789 88.4422C198.291 90.5994 201.273 94.4215 201.513 94.7258C199.255 96.3777 197.114 98.1738 195.103 100.102C193.923 101.208 192.777 102.381 191.636 103.559C192.075 102.945 192.458 102.392 192.503 102.309C193.78 99.997 194.847 94.7921 192.743 92.6792C192.383 92.3368 191.954 92.0717 191.482 91.9013C191.01 91.7309 190.506 91.6591 190.003 91.6904C189.501 91.7217 189.01 91.8555 188.565 92.0831C188.119 92.3107 187.728 92.6269 187.417 93.0111C186.031 94.593 186.048 97.1485 186.493 99.0623C186.938 100.976 189.424 104.317 190.091 105.18L188.791 106.546C186.727 108.759 184.68 110.943 182.598 113.04C181.869 113.781 181.116 114.483 180.369 115.191C180.757 114.638 181.082 114.185 181.122 114.085C182.399 111.773 183.465 106.568 181.361 104.455C181.001 104.113 180.571 103.848 180.099 103.678C179.627 103.508 179.123 103.435 178.62 103.466C178.118 103.497 177.627 103.63 177.181 103.857C176.734 104.083 176.342 104.398 176.029 104.782C174.65 106.369 174.667 108.924 175.111 110.838C175.556 112.752 177.797 115.767 178.59 116.801C177.803 117.498 177.016 118.2 176.218 118.848C175.647 119.273 175.163 119.721 174.581 120.125L172.899 121.331C171.804 122.067 170.675 122.825 169.586 123.516C168.828 123.997 168.103 124.445 167.368 124.899C168.109 124.169 169.523 122.714 169.649 122.581C171.005 120.681 171.837 118.476 172.066 116.176C172.228 115.971 172.369 115.753 172.488 115.523C172.727 115.093 172.871 114.619 172.908 114.132C172.946 113.644 172.878 113.155 172.708 112.695C172.538 112.234 172.27 111.814 171.922 111.461C171.574 111.108 171.153 110.83 170.687 110.645C167.835 109.61 163.348 112.619 161.666 114.677C161.563 114.799 160.639 116.231 160.069 117.144C160.32 116.558 160.571 115.993 160.822 115.385C161.324 114.19 161.791 112.984 162.293 111.685C162.515 111.048 162.743 110.407 162.966 109.76C163.188 109.113 163.371 108.421 163.582 107.746C164.032 106.164 164.408 104.549 164.751 102.906C165.828 103.332 169.689 104.787 171.719 104.721C173.749 104.654 176.28 104.024 177.529 102.326C177.833 101.936 178.048 101.488 178.162 101.013C178.275 100.537 178.284 100.043 178.188 99.5632C178.092 99.0837 177.892 98.6292 177.603 98.2293C177.314 97.8295 176.941 97.4932 176.508 97.2425C173.868 95.7988 168.947 98.1164 166.963 99.8975C166.838 100.014 165.56 101.446 164.876 102.248C165.07 101.264 165.275 100.279 165.446 99.2724C165.925 96.3685 166.319 93.4204 166.729 90.4778C166.849 89.5762 166.986 88.6801 167.117 87.784C167.499 87.9389 172.049 89.7642 174.325 89.6868C176.343 89.6204 178.886 88.9899 180.129 87.2918C180.433 86.9023 180.649 86.4552 180.763 85.9794C180.877 85.5037 180.886 85.01 180.791 84.5305C180.695 84.0511 180.496 83.5965 180.207 83.1964C179.919 82.7964 179.546 82.4598 179.114 82.2085C176.469 80.7704 171.548 83.0825 169.563 84.8691C169.415 85.0018 167.579 87.0816 167.14 87.6347C167.431 85.66 167.71 83.6909 168.121 81.7605C168.632 79.1523 169.316 76.5786 170.168 74.0555C170.344 74.1274 175.083 76.0578 177.415 75.9803C179.434 75.9084 181.977 75.2834 183.22 73.5853C183.524 73.1954 183.74 72.7478 183.854 72.2717C183.968 71.7955 183.977 71.3014 183.882 70.8215C183.786 70.3416 183.587 69.8866 183.298 69.486C183.009 69.0855 182.637 68.7483 182.205 68.4965C179.559 67.0584 174.644 69.3705 172.654 71.1571C172.523 71.2732 171.126 72.8496 170.476 73.613L170.327 73.53C171.242 71.0167 172.387 68.588 173.749 66.273C174.49 64.9897 175.265 63.8005 176.029 62.6611C176.873 63.1091 180.757 65.1059 182.872 65.2663C184.891 65.4101 187.497 65.0561 188.916 63.5018C189.262 63.1467 189.527 62.725 189.694 62.2641C189.86 61.8031 189.925 61.3133 189.884 60.8265C189.842 60.3397 189.696 59.8668 189.453 59.4386C189.211 59.0104 188.879 58.6364 188.477 58.3412C186.014 56.6265 180.865 58.402 178.687 59.9674C178.573 60.0503 177.466 61.0404 176.674 61.7761C177.033 61.2672 177.398 60.7362 177.757 60.255C179.092 58.4518 180.432 56.8754 181.623 55.487C182.313 54.7071 182.952 54.0102 183.551 53.3686C184.617 53.3686 188.911 53.4128 190.815 52.6218C192.72 51.8309 194.807 50.3706 195.343 48.3573C195.481 47.8867 195.516 47.3931 195.445 46.9086C195.373 46.4242 195.197 45.9598 194.928 45.5459C194.659 45.1319 194.303 44.7777 193.883 44.5063C193.463 44.2349 192.989 44.0525 192.492 43.971C189.492 43.5506 185.763 47.4335 184.571 49.7898C184.469 49.9945 183.243 53.363 183.294 53.363H183.363C182.792 53.9715 182.137 54.6297 181.464 55.3654C180.238 56.726 178.858 58.2803 177.472 60.0614C175.961 61.9706 174.565 63.9634 173.292 66.0296C171.859 68.3373 170.64 70.764 169.649 73.2811L169.615 73.3751C169.666 72.5122 169.711 70.1061 169.694 69.9181C169.443 67.3018 167.374 62.3956 164.414 61.7595C163.92 61.667 163.411 61.6764 162.921 61.7871C162.431 61.8978 161.97 62.1073 161.569 62.4021C161.168 62.6969 160.835 63.0703 160.592 63.498C160.35 63.9257 160.202 64.3981 160.16 64.8846C159.938 66.9478 161.403 69.0718 162.863 70.427Z" fill="#9C9C9C"/>
<path d="M197.35 167.794V165.941C197.35 156.399 209.804 155.984 209.804 149.192C209.804 146.244 207.329 144.319 203.645 144.319C199.614 144.319 197.065 146.449 197.065 149.469V150.226C197.065 150.979 196.643 151.333 195.862 151.333L188.295 151.056C187.588 151.056 187.092 150.713 187.092 150.237V149.48C187.092 141.183 193.883 135.48 203.862 135.48C213.624 135.48 219.919 140.834 219.919 148.86C219.919 160.255 207.255 160.326 207.255 166.56V167.794C207.274 167.951 207.256 168.111 207.202 168.261C207.149 168.412 207.061 168.548 206.945 168.66C206.829 168.773 206.689 168.858 206.534 168.91C206.379 168.962 206.214 168.979 206.052 168.961H198.553C198.391 168.979 198.226 168.962 198.071 168.91C197.916 168.858 197.776 168.773 197.66 168.66C197.544 168.548 197.456 168.412 197.402 168.261C197.349 168.111 197.331 167.951 197.35 167.794ZM196.711 178.856C196.711 175.836 199.471 173.364 202.796 173.364C205.983 173.364 208.811 175.836 208.811 178.856C208.811 181.876 205.96 184.349 202.727 184.349C199.494 184.349 196.711 181.865 196.711 178.845V178.856Z" fill="#263238"/>
<path d="M47.8382 89.1945V87.5849C47.8382 79.288 58.6724 78.9395 58.6724 73.0377C58.6724 70.4712 56.5226 68.8063 53.3294 68.8063C49.8226 68.8063 47.6272 70.6537 47.6272 73.2755V73.9337C47.6272 74.5864 47.2623 74.8851 46.5837 74.8851L40.0091 74.6473C39.3932 74.6473 38.9656 74.3486 38.9656 73.9337V73.2755C38.9656 66.0849 44.8616 61.1068 53.529 61.1068C62.0082 61.1068 67.4823 65.7585 67.4823 72.7224C67.4823 82.6178 56.477 82.6786 56.477 88.1048V89.1779C56.4935 89.3146 56.4778 89.4533 56.4312 89.5833C56.3845 89.7134 56.3082 89.8315 56.2078 89.9289C56.1074 90.0263 55.9856 90.1004 55.8515 90.1456C55.7174 90.1908 55.5745 90.206 55.4335 90.1901H48.8817C48.7423 90.2056 48.601 90.1906 48.4684 90.1463C48.3357 90.102 48.2149 90.0295 48.1148 89.934C48.0148 89.8386 47.938 89.7226 47.8901 89.5946C47.8423 89.4667 47.8245 89.3299 47.8382 89.1945ZM47.268 98.7912C47.268 96.1694 49.6629 94.0233 52.5482 94.0233C55.3138 94.0233 57.7771 96.1694 57.7771 98.7912C57.7771 101.413 55.3138 103.559 52.4912 103.559C51.1503 103.592 49.8505 103.109 48.8752 102.216C47.8999 101.323 47.3283 100.092 47.2851 98.7912H47.268Z" fill="#CACAEA"/>
<path d="M185.467 25.7234V24.9103C185.467 20.7232 190.929 20.5406 190.929 17.5593C190.929 16.265 189.84 15.4187 188.227 15.4187C186.459 15.4187 185.341 16.3535 185.341 17.681V18.0129C185.341 18.3447 185.153 18.4941 184.811 18.4941L181.492 18.3724C181.179 18.3724 180.962 18.2231 180.962 18.0129V17.681C180.962 14.0359 183.944 11.5358 188.323 11.5358C192.606 11.5358 195.371 13.8866 195.371 17.41C195.371 22.3881 189.812 22.4379 189.812 25.1537V25.7068C189.82 25.7761 189.812 25.8463 189.788 25.9122C189.765 25.978 189.726 26.0377 189.675 26.0867C189.623 26.1358 189.561 26.1729 189.493 26.1952C189.425 26.2176 189.353 26.2246 189.281 26.2157H185.991C185.922 26.2243 185.851 26.2176 185.785 26.1962C185.718 26.1747 185.657 26.139 185.607 26.0918C185.557 26.0445 185.518 25.9869 185.494 25.9231C185.469 25.8594 185.46 25.7911 185.467 25.7234ZM185.187 30.5743C185.151 30.0572 185.275 29.5412 185.545 29.0937C185.815 28.6461 186.217 28.2877 186.7 28.0649C187.182 27.8421 187.723 27.7654 188.251 27.8446C188.779 27.9238 189.27 28.1553 189.661 28.5091C190.052 28.8628 190.324 29.3224 190.441 29.8281C190.559 30.3338 190.517 30.8621 190.321 31.3444C190.125 31.8267 189.784 32.2407 189.343 32.5325C188.901 32.8242 188.379 32.9803 187.844 32.9804C187.507 32.9923 187.17 32.9393 186.854 32.8247C186.538 32.7101 186.248 32.536 186.001 32.3125C185.754 32.089 185.555 31.8204 185.415 31.5221C185.276 31.2238 185.198 30.9018 185.187 30.5743Z" fill="#CACAEA"/>
<path d="M25.3317 137.587V136.564C25.3317 131.287 32.2199 131.061 32.2199 127.299C32.2199 125.668 30.8514 124.606 28.7986 124.606C26.569 124.606 25.1606 125.784 25.1606 127.454V127.869C25.1606 128.289 24.9268 128.477 24.4934 128.477L20.308 128.328C19.9146 128.328 19.6409 128.134 19.6409 127.869V127.454C19.6409 122.863 23.3986 119.71 28.9183 119.71C34.3183 119.71 37.7967 122.67 37.7967 127.111C37.7967 133.411 30.7944 133.45 30.7944 136.907V137.587C30.8054 137.675 30.7958 137.764 30.7662 137.847C30.7366 137.931 30.6878 138.006 30.6235 138.069C30.5592 138.131 30.481 138.179 30.3951 138.207C30.3091 138.236 30.2175 138.245 30.1272 138.235H25.9874C25.898 138.243 25.8077 138.233 25.7232 138.203C25.6387 138.174 25.5621 138.126 25.4991 138.064C25.4361 138.002 25.3884 137.927 25.3594 137.844C25.3304 137.762 25.3209 137.674 25.3317 137.587ZM24.9781 143.699C24.9335 143.048 25.0921 142.398 25.4334 141.835C25.7746 141.272 26.2827 140.822 26.8915 140.543C27.5003 140.264 28.1815 140.169 28.8465 140.271C29.5116 140.373 30.1296 140.667 30.6202 141.114C31.1107 141.561 31.4511 142.142 31.5969 142.779C31.7428 143.417 31.6874 144.082 31.4379 144.689C31.1884 145.295 30.7565 145.815 30.1983 146.18C29.6401 146.545 28.9815 146.739 28.3082 146.736C27.4501 146.763 26.616 146.458 25.9894 145.889C25.3629 145.319 24.995 144.532 24.9667 143.699H24.9781Z" stroke="#263238" stroke-miterlimit="10"/>
<path d="M77.792 42.1069V41.4044C77.792 37.7759 82.5305 37.6155 82.5305 35.0324C82.5305 33.9262 81.5896 33.1794 80.1869 33.1794C78.653 33.1794 77.6836 33.987 77.6836 35.1375V35.4251C77.6836 35.7128 77.5239 35.84 77.2274 35.84L74.3763 35.7349C74.1083 35.7349 73.9202 35.6077 73.9202 35.4251V35.1375C73.9202 31.9792 76.5033 29.8109 80.2952 29.8109C84.0872 29.8109 86.3453 31.8464 86.3453 34.8997C86.3453 39.2362 81.5269 39.2638 81.5269 41.6367V42.1069C81.5342 42.1667 81.5275 42.2274 81.5071 42.2843C81.4868 42.3412 81.4534 42.3929 81.4095 42.4355C81.3656 42.4781 81.3123 42.5105 81.2536 42.5302C81.1949 42.55 81.1324 42.5565 81.0707 42.5494H78.2196C78.1602 42.5522 78.1009 42.5424 78.0458 42.5207C77.9907 42.4991 77.9411 42.4661 77.9004 42.424C77.8597 42.3819 77.829 42.3317 77.8102 42.277C77.7915 42.2223 77.7853 42.1642 77.792 42.1069ZM77.5525 46.3106C77.5274 45.8687 77.6395 45.4296 77.8744 45.0501C78.1093 44.6706 78.4561 44.3682 78.8701 44.1819C79.284 43.9956 79.746 43.9341 80.1964 44.0052C80.6468 44.0763 81.0648 44.2769 81.3965 44.5809C81.7281 44.8849 81.9582 45.2784 82.0568 45.7106C82.1555 46.1428 82.1182 46.5937 81.9499 47.0051C81.7816 47.4165 81.4899 47.7695 81.1126 48.0184C80.7353 48.2674 80.2897 48.4008 79.8333 48.4015C79.2444 48.4209 78.6716 48.2127 78.2407 47.8228C77.8099 47.4329 77.5562 46.893 77.5354 46.3217L77.5525 46.3106Z" fill="#263238"/>
<path d="M162.185 193.746V193.044C162.185 189.415 166.923 189.26 166.923 186.672C166.923 185.566 165.982 184.819 164.579 184.819C163.046 184.819 162.076 185.626 162.076 186.777V187.064C162.076 187.352 161.917 187.485 161.62 187.485L158.769 187.38C158.501 187.38 158.313 187.247 158.313 187.064V186.777C158.313 183.619 160.896 181.45 164.688 181.45C168.48 181.45 170.801 183.486 170.801 186.545C170.801 190.876 165.982 190.903 165.982 193.276V193.746C165.989 193.806 165.983 193.867 165.962 193.924C165.942 193.981 165.909 194.033 165.865 194.076C165.821 194.119 165.768 194.152 165.709 194.173C165.651 194.193 165.588 194.2 165.526 194.194H162.675C162.61 194.206 162.544 194.203 162.481 194.185C162.418 194.167 162.36 194.135 162.312 194.091C162.264 194.048 162.228 193.994 162.206 193.934C162.183 193.874 162.176 193.809 162.185 193.746ZM161.945 197.95C161.92 197.508 162.032 197.069 162.267 196.689C162.502 196.31 162.849 196.008 163.263 195.821C163.677 195.635 164.139 195.573 164.589 195.645C165.039 195.716 165.457 195.916 165.789 196.22C166.121 196.524 166.351 196.918 166.449 197.35C166.548 197.782 166.511 198.233 166.342 198.644C166.174 199.056 165.882 199.409 165.505 199.658C165.128 199.907 164.682 200.04 164.226 200.041C163.639 200.054 163.07 199.842 162.644 199.45C162.218 199.059 161.969 198.519 161.951 197.95H161.945Z" stroke="#263238" stroke-miterlimit="10"/>
<path d="M109.074 200.162L109.228 199.825C109.249 199.78 109.271 199.735 109.292 199.69C109.325 199.624 109.357 199.557 109.388 199.488C109.439 199.372 109.49 199.261 109.547 199.15L109.074 200.162ZM109.074 200.162C109.017 200.279 108.966 200.389 108.914 200.505L109.074 200.162ZM109.861 198.47C112.085 193.591 117.416 190.129 123.546 190.129C129.87 190.129 135.618 194.156 137.477 199.643C137.5 199.701 137.52 199.759 137.54 199.817C137.559 199.875 137.579 199.933 137.602 199.991C137.625 200.049 137.645 200.109 137.665 200.168C137.685 200.227 137.705 200.287 137.728 200.345C137.75 200.403 137.77 200.461 137.79 200.519C137.81 200.577 137.83 200.635 137.853 200.693C137.899 200.81 137.939 200.926 137.979 201.047L138.11 201.396C138.127 201.445 138.145 201.495 138.163 201.544C138.187 201.612 138.212 201.68 138.235 201.75L109.861 198.47ZM109.861 198.47C109.817 198.555 109.777 198.642 109.738 198.728C109.726 198.755 109.713 198.781 109.701 198.807L109.861 198.47ZM138.982 203.879L139.108 204.228C139.13 204.286 139.15 204.346 139.17 204.405C139.19 204.464 139.21 204.524 139.233 204.582C139.256 204.64 139.276 204.698 139.296 204.756C139.316 204.814 139.336 204.872 139.359 204.93C139.381 204.988 139.401 205.048 139.421 205.107C139.441 205.167 139.461 205.226 139.484 205.284C139.507 205.343 139.527 205.401 139.547 205.459C139.567 205.517 139.587 205.575 139.609 205.633C139.632 205.691 139.652 205.75 139.672 205.81C139.692 205.869 139.712 205.929 139.735 205.987C139.78 206.103 139.82 206.219 139.86 206.335L139.86 206.335C139.906 206.452 139.946 206.568 139.986 206.728C140.584 208.324 140.891 210.008 140.892 211.706L138.982 203.879ZM138.982 203.879C138.959 203.81 138.934 203.741 138.91 203.674C138.892 203.624 138.874 203.575 138.857 203.525L138.982 203.879ZM139.387 206.498L139.391 206.508L139.395 206.518C139.434 206.617 139.467 206.713 139.501 206.849L139.507 206.877L139.518 206.904C140.095 208.444 140.391 210.069 140.392 211.707C140.392 220.284 132.328 227.391 122.959 227.391C113.39 227.391 105.731 220.294 105.731 211.706L105.731 211.704C105.721 209.548 106.207 207.416 107.152 205.464L107.156 205.456L107.159 205.448C107.19 205.378 107.221 205.313 107.254 205.244C107.273 205.203 107.294 205.16 107.315 205.113C107.33 205.082 107.343 205.053 107.356 205.025C107.394 204.941 107.428 204.868 107.466 204.794L107.471 204.784L107.476 204.773L107.63 204.436L107.63 204.436L107.633 204.43C107.654 204.382 107.676 204.336 107.704 204.279L107.706 204.276C107.732 204.223 107.763 204.16 107.792 204.093C107.841 203.982 107.89 203.878 107.943 203.768L107.944 203.768L107.95 203.755L108.102 203.421C108.102 203.42 108.103 203.42 108.103 203.419C108.116 203.392 108.134 203.354 108.154 203.313C108.19 203.237 108.234 203.147 108.266 203.075L107.808 202.873L108.266 203.075C108.315 202.964 108.362 202.863 108.412 202.764L108.419 202.752L108.424 202.74L108.577 202.4C108.601 202.349 108.626 202.295 108.653 202.239L108.653 202.238C108.68 202.182 108.708 202.123 108.735 202.065L108.282 201.855L108.735 202.065C108.749 202.035 108.763 202.005 108.776 201.977C108.814 201.894 108.848 201.82 108.886 201.747L108.891 201.736L108.896 201.725L109.05 201.388L109.05 201.388L109.053 201.382C109.074 201.335 109.096 201.288 109.124 201.231L109.126 201.228C109.152 201.175 109.183 201.112 109.212 201.045C109.233 200.997 109.256 200.951 109.284 200.894L109.285 200.891C109.311 200.837 109.342 200.775 109.372 200.707C109.421 200.597 109.469 200.492 109.523 200.383L109.523 200.383L109.529 200.37L109.682 200.035C109.682 200.035 109.682 200.035 109.682 200.034C109.695 200.007 109.713 199.969 109.733 199.928C109.77 199.852 109.813 199.762 109.845 199.69C109.894 199.579 109.941 199.478 109.992 199.379L109.998 199.367L110.004 199.355L110.156 199.015C110.17 198.985 110.183 198.957 110.196 198.929C110.234 198.846 110.268 198.772 110.305 198.699L110.311 198.688L110.316 198.677C112.453 193.988 117.599 190.629 123.546 190.629C129.672 190.629 135.218 194.534 137.003 199.803L137.007 199.814L137.011 199.825C137.03 199.872 137.046 199.92 137.067 199.979L137.068 199.983C137.087 200.039 137.11 200.106 137.137 200.174L137.137 200.174C137.154 200.218 137.17 200.266 137.191 200.327L137.192 200.332C137.211 200.388 137.235 200.458 137.262 200.528C137.28 200.574 137.297 200.622 137.318 200.682L137.319 200.685C137.338 200.741 137.361 200.808 137.388 200.876C137.428 200.98 137.465 201.085 137.503 201.203L137.507 201.214L137.511 201.224L137.639 201.565C137.663 201.634 137.681 201.684 137.698 201.73C137.718 201.785 137.737 201.834 137.76 201.905C137.76 201.905 137.76 201.905 137.76 201.906L137.879 202.274L137.879 202.274L137.882 202.283C137.907 202.356 137.926 202.407 137.943 202.454C137.964 202.51 137.982 202.559 138.005 202.63L138.008 202.637L138.01 202.644L138.133 202.986C138.133 202.987 138.134 202.988 138.134 202.989C138.159 203.06 138.177 203.11 138.194 203.157C138.215 203.212 138.233 203.262 138.256 203.333L138.258 203.34L138.261 203.346L138.384 203.688C138.384 203.689 138.385 203.69 138.385 203.691C138.409 203.762 138.428 203.813 138.445 203.859C138.466 203.915 138.484 203.964 138.507 204.035L138.509 204.042L138.512 204.049L138.637 204.397L138.64 204.404L138.642 204.411C138.66 204.455 138.676 204.503 138.696 204.564L138.698 204.569C138.717 204.625 138.74 204.695 138.768 204.765C138.786 204.811 138.802 204.859 138.823 204.919L138.824 204.922C138.843 204.978 138.866 205.045 138.893 205.113C138.911 205.158 138.927 205.205 138.947 205.267L138.949 205.271C138.968 205.327 138.991 205.397 139.019 205.467C139.037 205.514 139.053 205.562 139.074 205.621C139.093 205.678 139.117 205.746 139.144 205.816C139.161 205.86 139.177 205.907 139.198 205.969L139.2 205.974C139.219 206.03 139.242 206.1 139.269 206.17C139.31 206.274 139.347 206.38 139.387 206.498ZM138.408 202.269C138.39 202.219 138.372 202.17 138.355 202.121L138.731 203.177C138.708 203.107 138.683 203.039 138.659 202.972C138.641 202.922 138.623 202.872 138.606 202.823L138.48 202.475C138.457 202.405 138.433 202.336 138.408 202.269Z" fill="#263238" stroke="#1C1259"/>
<path d="M141.033 131.625C141.033 127.895 139.463 124.799 136.729 122.648C134.006 120.505 130.16 119.321 125.622 119.321C120.64 119.321 116.53 120.63 113.654 122.919C110.768 125.216 109.156 128.476 109.156 132.288V134.114C109.156 134.936 108.928 135.444 108.575 135.756C108.212 136.078 107.627 136.273 106.751 136.274L88.4218 135.611L88.4 135.61L88.3783 135.611C87.6276 135.649 86.8937 135.401 86.3334 134.923L86.3053 134.899L86.274 134.879C86.1589 134.807 86.0519 134.724 85.9546 134.631L85.9187 134.597L85.8767 134.57C85.7576 134.495 85.6459 134.41 85.5431 134.315L85.5091 134.284L85.47 134.259C85.3549 134.187 85.2479 134.104 85.1506 134.012L85.1128 133.976L85.0685 133.948C84.9513 133.876 84.8422 133.792 84.7428 133.699L84.7073 133.666L84.666 133.64C84.5509 133.568 84.4439 133.485 84.3466 133.392L84.3088 133.356L84.2644 133.329C84.1473 133.256 84.0382 133.173 83.9388 133.08L83.904 133.047L83.8638 133.022C83.7447 132.946 83.6331 132.861 83.5302 132.766L83.4982 132.737L83.4615 132.713C83.3443 132.638 83.2347 132.553 83.1339 132.459L83.0995 132.427L83.0598 132.402C82.9407 132.327 82.8291 132.241 82.7262 132.147L82.6957 132.119L82.661 132.096C82.5507 132.024 82.4462 131.945 82.3483 131.858L82.3144 131.828L82.2757 131.805C82.1474 131.727 82.0281 131.637 81.9197 131.536L81.8844 131.503L81.8434 131.477C81.7283 131.405 81.6213 131.322 81.524 131.229L81.4862 131.193L81.4419 131.166C81.3247 131.094 81.2156 131.01 81.1162 130.917L81.0815 130.884L81.0412 130.859C80.9221 130.784 80.8105 130.698 80.7076 130.604L80.6738 130.573L80.6348 130.548C80.5178 130.475 80.4091 130.39 80.3104 130.296L80.2728 130.26L80.2286 130.232C80.114 130.161 80.0076 130.078 79.9112 129.986L79.8708 129.947L79.8228 129.918C79.7082 129.849 79.6023 129.768 79.507 129.677L79.4681 129.639L79.4221 129.611C79.3055 129.539 79.1971 129.456 79.0986 129.364L79.0611 129.328L79.0173 129.301C78.9006 129.23 78.7923 129.147 78.6938 129.054L78.6597 129.022L78.6203 128.996C78.5032 128.921 78.3935 128.836 78.2928 128.742L78.2497 128.702L78.1984 128.673C77.9468 128.53 77.7392 128.328 77.5944 128.087C77.4502 127.847 77.3728 127.576 77.3682 127.301V125.092C77.3682 112.999 82.3084 102.822 90.8748 95.6609C99.4484 88.4936 111.684 84.3234 126.295 84.3234C140.596 84.3234 152.31 88.2429 160.439 95.0521C168.559 101.854 173.14 111.571 173.14 123.261C173.14 131.554 170.838 137.764 167.397 142.709C163.948 147.665 159.339 151.373 154.687 154.638C153.317 155.599 151.938 156.526 150.583 157.435C147.367 159.595 144.291 161.661 141.808 163.883C138.254 167.063 135.808 170.652 135.808 175.454V179.099C135.808 180.117 135.52 180.83 135.043 181.291C134.562 181.755 133.817 182.034 132.761 182.034H110.682C109.618 182.034 108.873 181.752 108.395 181.288C107.92 180.826 107.635 180.113 107.635 179.099V173.634C107.635 162.497 113.489 155.656 120.572 150.107C123.004 148.202 125.56 146.464 128.074 144.755C129.237 143.965 130.39 143.181 131.517 142.39C135.062 139.902 138.337 137.349 140.687 134.362L140.761 134.268L140.784 134.15C140.95 133.318 141.033 132.472 141.033 131.625ZM141.033 131.625H140.533M141.033 131.625C141.033 131.624 141.033 131.624 141.033 131.624L140.533 131.625M140.533 131.625C140.533 132.439 140.453 133.253 140.294 134.053L106.742 136.774C108.629 136.774 109.656 135.944 109.656 134.114V132.288C109.656 124.97 115.826 119.821 125.622 119.821C134.535 119.821 140.533 124.473 140.533 131.625Z" fill="#263238" stroke="#1C1259"/>
<path d="M107.107 179.111V173.646C107.107 145.525 143.812 144.33 143.812 124.285C143.812 115.584 136.513 109.903 125.668 109.903C113.778 109.903 106.28 116.176 106.28 125.076V127.288C106.28 129.501 105.026 130.53 102.733 130.53L80.4148 129.716C78.3335 129.716 76.8738 128.704 76.8738 127.288V125.076C76.8738 100.594 96.8942 83.807 126.3 83.807C155.079 83.807 173.629 99.5821 173.629 123.256C173.629 156.836 136.296 157.041 136.296 175.449V179.094C136.296 181.306 135.042 182.529 132.75 182.529H110.654C108.356 182.545 107.107 181.334 107.107 179.111ZM105.231 211.706C105.231 202.806 113.362 195.522 123.164 195.522C132.55 195.522 140.892 202.806 140.892 211.706C140.892 220.606 132.533 227.863 122.959 227.863C113.145 227.863 105.231 220.584 105.231 211.706Z" fill="#CACAEA" stroke="#1C1259" stroke-miterlimit="10"/>
<path d="M152.686 239.246C152.686 239.545 152.549 239.884 152.19 240.264C151.829 240.647 151.272 241.04 150.511 241.43C148.991 242.21 146.759 242.926 143.96 243.533C138.369 244.746 130.621 245.5 122.047 245.5C113.472 245.5 105.725 244.746 100.134 243.533C97.334 242.926 95.1021 242.21 93.5822 241.43C92.8216 241.04 92.2644 240.647 91.9033 240.264C91.5444 239.884 91.407 239.545 91.407 239.246C91.407 238.947 91.5444 238.609 91.9033 238.228C92.2644 237.846 92.8216 237.452 93.5822 237.062C95.1021 236.283 97.334 235.567 100.134 234.959C105.725 233.747 113.472 232.993 122.047 232.993C130.621 232.993 138.369 233.747 143.96 234.959C146.759 235.567 148.991 236.283 150.511 237.062C151.272 237.452 151.829 237.846 152.19 238.228C152.549 238.609 152.686 238.947 152.686 239.246Z" fill="#263238" stroke="#1C1259"/>
<path d="M98.2456 86.0638L97.0538 88.5861C97.0538 88.5861 90.1313 89.3107 90.1313 89.814C90.1313 90.3174 90.2055 93.7855 90.5818 93.9293C90.8679 94.0373 91.1853 94.0373 91.4714 93.9293L101.667 91.4015L102.636 86.9267L98.2456 86.0638Z" fill="white" stroke="#263238" stroke-linecap="round" stroke-linejoin="round"/>
<path d="M96.3069 90.5718C95.0408 91.5779 93.6751 92.4598 92.2298 93.2046C90.5819 93.9237 90.5191 95.0134 91.0437 95.0134C91.5683 95.0134 96.2213 93.1217 96.2213 93.1217C96.2213 93.1217 100.447 92.0486 101.057 91.7223C101.667 91.3959 101.735 89.5817 101.735 89.5817" fill="white"/>
<path d="M96.3069 90.5718C95.0408 91.5779 93.6751 92.4598 92.2298 93.2046C90.5819 93.9237 90.5191 95.0134 91.0437 95.0134C91.5683 95.0134 96.2213 93.1217 96.2213 93.1217C96.2213 93.1217 100.447 92.0486 101.057 91.7223C101.667 91.3959 101.735 89.5817 101.735 89.5817" stroke="#263238" stroke-linecap="round" stroke-linejoin="round"/>
<path d="M104.336 37.5989L100.082 69.2266L97.1223 86.3514L103.691 87.8559L108.589 67.6004L110.91 54.8509L104.336 37.5989Z" fill="#7D7D7D" stroke="#263238" stroke-linecap="round" stroke-linejoin="round"/>
<path d="M138.663 14.6995L136.068 14.3013L130.754 12.3488L130.56 18.4719L138.8 19.2075L138.663 14.6995Z" fill="white" stroke="#263238" stroke-linecap="round" stroke-linejoin="round"/>
<path d="M108.333 126.857C106.399 129.044 104.593 131.334 102.921 133.716C100.726 136.968 101.502 140.464 104.21 141.343C106.919 142.223 110.391 139.839 111.298 137.964C112.205 136.088 111.942 135.093 113.356 133.218C114.771 131.343 115.934 129.468 115.421 126.967C114.907 124.467 109.724 125.109 108.333 126.857Z" fill="#7D7D7D" stroke="#263238" stroke-linecap="round" stroke-linejoin="round"/>
<path d="M111.036 138.434C110.853 138.058 110.642 137.659 110.391 137.233C108.321 133.699 104.689 133.981 102.408 134.639C100.908 137.61 101.764 140.563 104.221 141.36C106.679 142.156 109.85 140.209 111.036 138.434Z" fill="white" stroke="#263238" stroke-linecap="round" stroke-linejoin="round"/>
<path d="M110.391 137.233C109.621 138.34 108.589 141.36 104.592 140.11C103.477 139.832 102.48 139.223 101.741 138.367C101.827 139.042 102.107 139.68 102.547 140.208C102.987 140.737 103.571 141.136 104.233 141.36C106.936 142.234 110.414 139.855 111.321 137.98C112.227 136.105 111.965 135.109 113.379 133.234C114.793 131.359 115.957 129.484 115.443 126.984C115.443 129.982 114.303 130.48 112.866 132.106C111.429 133.732 111.167 136.105 110.391 137.233Z" fill="white" stroke="#263238" stroke-linecap="round" stroke-linejoin="round"/>
<path d="M146.361 126.857C148.294 129.044 150.101 131.334 151.772 133.716C153.967 136.968 153.192 140.464 150.483 141.343C147.775 142.223 144.302 139.839 143.396 137.964C142.489 136.088 142.751 135.093 141.337 133.218C139.923 131.343 138.76 129.468 139.273 126.967C139.786 124.467 144.947 125.109 146.361 126.857Z" fill="#7D7D7D" stroke="#263238" stroke-linecap="round" stroke-linejoin="round"/>
<path d="M143.664 138.434C143.84 138.058 144.051 137.659 144.302 137.233C146.372 133.699 150.004 133.981 152.285 134.639C153.785 137.61 152.93 140.563 150.472 141.36C148.014 142.156 144.844 140.209 143.664 138.434Z" fill="white" stroke="#263238" stroke-linecap="round" stroke-linejoin="round"/>
<path d="M144.302 137.233C145.072 138.34 146.104 141.36 150.101 140.11C151.216 139.832 152.213 139.223 152.952 138.367C152.866 139.042 152.587 139.68 152.146 140.208C151.706 140.737 151.122 141.136 150.461 141.36C147.758 142.234 144.279 139.855 143.373 137.98C142.466 136.105 142.728 135.109 141.314 133.234C139.9 131.359 138.737 129.484 139.25 126.984C139.25 129.982 140.39 130.48 141.827 132.106C143.264 133.732 143.527 136.105 144.302 137.233Z" fill="white" stroke="#263238" stroke-linecap="round" stroke-linejoin="round"/>
<path d="M152.405 83.7296C152.405 81.4784 148.414 78.9782 148.414 78.9782C142.398 73.0432 131.541 73.8286 127.532 74.3596C123.541 73.8065 112.672 73.0432 106.656 78.9782C106.656 78.9782 102.665 81.4784 102.665 83.7296C102.665 85.9808 107.694 126.608 107.694 126.608C107.694 126.608 107.563 128.732 111.172 128.981C114.782 129.23 116.304 127.233 116.304 127.233L117.724 92.8561C117.724 92.8561 123.523 88.8515 124.567 88.7298C124.943 88.68 125.434 88.6026 125.981 88.5362V88.6026C127.002 88.3961 128.056 88.3961 129.077 88.6026V88.5362C129.648 88.6026 130.109 88.68 130.492 88.7298C131.524 88.8515 137.334 92.8561 137.334 92.8561L138.754 127.233C138.754 127.233 140.299 129.23 143.886 128.981C147.473 128.732 147.364 126.608 147.364 126.608C147.364 126.608 152.405 85.9808 152.405 83.7296Z" fill="#1C1259" stroke="#1C1259" stroke-linecap="round" stroke-linejoin="round"/>
<path d="M137.328 92.8561C137.328 92.8561 136.553 84.6035 140.293 81.4783" stroke="#707070" stroke-linecap="round" stroke-linejoin="round"/>
<path d="M117.741 92.8562C117.741 92.8562 118.129 85.9808 117.354 83.4807C116.578 80.9806 115.29 79.9794 115.29 79.9794" stroke="#707070" stroke-linecap="round" stroke-linejoin="round"/>
<path d="M122.509 76.4781C122.509 76.4781 126.631 81.1022 127.407 84.9796" stroke="#707070" stroke-linecap="round" stroke-linejoin="round"/>
<path d="M131.529 76.7436C131.529 76.7436 129.209 79.2437 128.952 81.1188" stroke="#707070" stroke-linecap="round" stroke-linejoin="round"/>
<path d="M125.73 28.1017C125.73 28.1017 121.995 27.5984 120.707 28.8485C119.418 30.0985 115.033 34.7061 115.033 34.7061L117.354 74.4592C117.354 74.4592 122.64 76.4615 127.15 76.4615C131.661 76.4615 136.815 74.8353 137.984 73.9614C139.153 73.0874 138.115 30.4581 138.115 30.4581C138.115 30.4581 128.541 27.7256 125.73 28.1017Z" fill="#1C1259" stroke="#263238" stroke-linecap="round" stroke-linejoin="round"/>
<path d="M132.561 28.9757C134.523 28.6867 136.502 28.5186 138.486 28.4723C141.063 28.4723 143.618 28.5996 143.618 28.5996L150.061 22.5981L137.095 19.7219L138.127 13.9749C138.127 13.9749 147.661 13.3499 152.428 14.2238C157.195 15.0978 164.67 17.349 165.058 17.349C165.446 17.349 165.959 18.7263 165.571 19.7219C165.184 20.7175 153.061 33.727 149.44 37.1011C147.071 39.3528 144.834 41.7312 142.74 44.2254L141.086 72.1029C141.086 72.1029 145.34 74.3541 146.116 75.1008C146.891 75.8475 147.792 78.851 147.792 78.851C147.792 78.851 139.929 75.7259 137.864 75.4769C135.8 75.228 134.517 75.1008 134.13 74.3707C133.742 73.6406 130.52 40.2429 130.52 40.2429L130.651 29.6173C130.651 29.6173 130.628 28.9757 132.561 28.9757Z" fill="#7D7D7D" stroke="#263238" stroke-linecap="round" stroke-linejoin="round"/>
<path d="M140.294 46.1005L133.331 46.9744L133.976 49.4745L137.46 50.3485L140.807 48.8495L140.294 46.1005Z" stroke="#263238" stroke-linecap="round" stroke-linejoin="round"/>
<path d="M144.285 31.0997L142.74 44.2254L146.737 33.102" stroke="#263238" stroke-linecap="round" stroke-linejoin="round"/>
<path d="M150.084 22.5981C150.084 22.5981 153.306 23.2231 158.204 21.348" stroke="#263238" stroke-linecap="round" stroke-linejoin="round"/>
<path d="M153.437 23.4721C155.554 23.5292 157.67 23.3623 159.75 22.9742" stroke="#263238" stroke-linecap="round" stroke-linejoin="round"/>
<path d="M121.351 27.9745L121.995 37.1011C122.583 37.8505 123.343 38.4556 124.216 38.8678C125.088 39.2799 126.048 39.4876 127.019 39.474C130.241 39.3523 130.628 37.1011 130.628 37.1011V29.6007L121.351 27.9745Z" fill="white" stroke="#263238" stroke-linecap="round" stroke-linejoin="round"/>
<path d="M130.754 32.7259L130.497 40.2374L133.206 36.1111C133.206 36.1111 136.171 39.734 136.941 39.6124C137.711 39.4907 136.428 37.9862 136.171 36.6144C135.914 35.2427 133.719 30.3586 133.462 28.9868C133.206 27.6151 130.754 27.3606 130.611 27.9857C130.54 28.5255 130.54 29.072 130.611 29.6118L130.754 32.7259Z" fill="#7D7D7D" stroke="#263238" stroke-linecap="round" stroke-linejoin="round"/>
<path d="M121.864 39.4741C121.864 39.4741 122.377 74.4759 121.089 74.8741C119.8 75.2724 114.645 75.3775 111.395 76.8764C108.145 78.3754 106.628 79.0004 106.628 79.0004C106.628 79.0004 108.173 75.3775 109.981 73.7513C111.182 72.7038 112.525 71.8199 113.972 71.1239L110.625 54.3753C110.625 54.3753 104.438 38.4951 104.307 37.6211C104.176 36.7472 116.036 30.248 118.483 29.1196C120.929 27.9912 121.579 28.9979 121.579 28.9979L121.864 39.4741Z" fill="#7D7D7D" stroke="#263238" stroke-linecap="round" stroke-linejoin="round"/>
<path d="M118.642 27.3495C118.642 27.3495 115.552 36.8522 115.289 38.1022C115.027 39.3523 115.289 39.3523 116.196 38.4728C117.103 37.5934 119.418 35.4749 119.418 35.4749L121.864 39.474L121.733 32.1008V27.8473C121.733 27.8473 121.607 26.0994 118.642 27.3495Z" fill="#7D7D7D" stroke="#263238" stroke-linecap="round" stroke-linejoin="round"/>
<path d="M112.587 47.8539H120.188L120.062 50.8518L116.709 51.9747L112.456 50.8518L112.587 47.8539Z" stroke="#263238" stroke-linecap="round" stroke-linejoin="round"/>
<path d="M133.462 14.976C133.462 14.976 135.264 22.5981 135.652 23.8261C136.04 25.054 133.593 29.9547 132.801 31.0775C132.499 31.5645 132.084 31.9762 131.589 32.2797C131.094 32.5833 130.533 32.7701 129.95 32.8254C129.049 32.8254 124.151 31.2047 122.987 30.4525C121.824 29.7002 120.672 28.8263 120.672 28.8263C120.124 29.0688 119.515 29.1508 118.919 29.0624C118.324 28.974 117.768 28.7189 117.319 28.3285C115.774 26.9512 113.71 25.325 114.223 24.2022C114.473 23.6512 114.892 23.188 115.422 22.8754C115.952 22.5628 116.569 22.4158 117.188 22.4543C118.608 22.4543 118.095 22.3271 118.095 22.3271C118.095 22.3271 115.517 18.7041 115.517 15.8279C115.517 12.9516 121.054 10.8497 124.276 10.8497C126.504 10.9398 128.692 11.4489 130.72 12.3487L133.462 14.976Z" fill="white" stroke="#263238" stroke-linecap="round" stroke-linejoin="round"/>
<path d="M128.952 17.8468L131.273 22.1003L128.952 23.5993L127.92 22.3492" stroke="#263238" stroke-linecap="round" stroke-linejoin="round"/>
<path d="M133.206 21.7242C133.206 21.7242 133.331 22.7254 131.786 24.3516" stroke="#263238" stroke-linecap="round" stroke-linejoin="round"/>
<path d="M126.506 19.4122C126.506 19.9985 126.243 20.4742 125.935 20.4742C125.628 20.4742 125.365 19.9985 125.365 19.4122C125.365 18.8259 125.628 18.3502 125.935 18.3502C126.243 18.3502 126.506 18.8259 126.506 19.4122Z" fill="#263238"/>
<path d="M130.56 18.4718C130.881 18.4718 131.142 17.9963 131.142 17.4098C131.142 16.8233 130.881 16.3478 130.56 16.3478C130.239 16.3478 129.978 16.8233 129.978 17.4098C129.978 17.9963 130.239 18.4718 130.56 18.4718Z" fill="#263238"/>
<path d="M119.543 8.47134C119.543 8.47134 111.435 11.3476 111.167 14.9761C110.899 18.6046 118.386 23.5993 118.773 24.2244C119.161 24.8494 120.319 23.4721 120.319 23.4721C120.061 23.1362 119.881 22.7503 119.792 22.3407C119.702 21.9311 119.705 21.5076 119.8 21.0992C120.188 19.8491 121.864 18.3336 121.864 17.7251C121.864 17.1167 119.931 18.2229 119.931 16.3478C119.931 14.4727 124.698 13.3499 127.532 13.4716C130.366 13.5933 132.818 18.2229 134.882 15.9717C136.946 13.7205 133.975 13.101 133.975 13.101C133.975 13.101 137.967 12.5977 137.967 10.6009C137.967 8.60409 135.903 7.22127 135.002 7.22127C134.101 7.22127 131.655 8.72578 131.655 7.09959C131.655 5.4734 134.101 4.72115 131.78 2.12146C129.459 -0.478233 126.5 2.12146 126.5 3.12261C126.5 4.12377 125.724 5.99334 125.211 5.99334C124.698 5.99334 123.147 3.74765 121.345 4.99771C120.803 5.41557 120.362 5.94261 120.05 6.54237C119.739 7.14213 119.566 7.8003 119.543 8.47134Z" fill="#263238" stroke="#263238" stroke-linecap="round" stroke-linejoin="round"/>
<path d="M122.896 18.1013L127.019 16.5968" stroke="#263238" stroke-linecap="round" stroke-linejoin="round"/>
<path d="M127.663 14.8489C127.584 14.4564 127.649 14.0496 127.846 13.6984" stroke="#263238" stroke-linecap="round" stroke-linejoin="round"/>
<path d="M127.846 13.6873C128.137 13.1342 128.792 12.4206 130.241 11.8398" stroke="white" stroke-linecap="round" stroke-linejoin="round"/>
</svg>
