<svg width="218" height="99" viewBox="0 0 218 99" fill="none" xmlns="http://www.w3.org/2000/svg">
<path d="M-57.9482 312.512C-29.2727 330.413 20.287 338.428 31.9836 301.849C40.8247 274.199 11.614 281.527 13.5865 242.299C15.559 203.07 43.2834 166.67 80.0896 163.096C107.193 160.464 99.4065 194.172 126.149 195.553C187.619 198.726 248.637 71.1566 199.815 36.2166C167.453 13.0563 134.53 57.7077 94.1095 53.7407C44.9976 48.9207 31.917 -8.04684 -18.1794 1.53532C-56.0646 8.7818 -94.1748 20.0867 -104.287 60.1458C-117.42 112.171 8.17387 69.1045 0.45677 121.695C-3.12846 146.127 -16.8332 157.524 -32.2738 177.395C-51.1484 201.686 -79.8081 201.451 -89.3444 230.555C-100.903 265.83 -85.6529 295.217 -57.9482 312.512Z" fill="#E0E0E0"/>
</svg>
