<svg width="133" height="118" viewBox="0 0 133 118" fill="none" xmlns="http://www.w3.org/2000/svg">
<path d="M63.6889 23.7465L39.9452 0.570068L34.0406 37.2121L2.22235 36.2095L22.127 60.8407L2.09717 85.6094L35.2716 79.4369L40.0704 110.889L66.902 91.7426L100.702 108.432L93.3163 76.2327L131.686 70.5516L101.829 53.9605L119.23 25.673L89.4147 36.6617L85.7843 1.78885L63.6889 23.7465Z" fill="white"/>
<path d="M63.6885 23.7072L65.149 22.2132C66.1297 21.2107 67.5276 19.7757 69.3219 17.9082L85.5336 1.61193L85.9091 1.23844V1.74954C86.9106 11.2246 88.1833 22.9995 89.6439 36.6224L89.164 36.3471L118.958 25.2995L120.064 24.8867L119.459 25.8499L102.1 54.157L101.954 53.5673L131.811 70.1191L133 70.7875L131.623 70.9841L93.3995 76.7831L93.8167 76.1934C96.1744 86.4547 98.6781 97.3058 101.224 108.393L101.474 109.435L100.472 108.943L71.158 94.4751L66.6513 92.2537H67.2146L40.383 111.381L39.6736 111.892L39.5484 111.066C37.921 100.333 36.3284 89.8489 34.7705 79.6138L35.3755 80.0266L2.20117 86.1598L0.907593 86.3957L1.70042 85.4128C8.66913 76.8421 15.3666 68.5662 21.772 60.6638V61.0569L1.88822 36.4061L1.34573 35.7378H2.24291L34.0611 36.8189L33.6855 37.1138C36.0432 22.685 38.0671 10.4186 39.6945 0.471789V0L40.0492 0.334185L57.5336 17.6133L62.0611 22.115C63.0835 23.1175 63.6051 23.6679 63.6051 23.6679C63.6051 23.6679 63.0835 23.2158 62.0611 22.2329L57.4918 17.8689L39.6736 0.668363L40.1118 0.550422C38.5261 10.4972 36.5857 22.7833 34.3115 37.2121V37.5069H33.9776L2.15944 36.5634L2.51413 35.9147L22.4605 60.5262L22.6691 60.8014L22.4605 61.0569L2.45154 85.8453L1.97167 85.0983L35.1252 78.9258H35.6676V79.4369C37.2394 89.6589 38.839 100.143 40.4665 110.889L39.6319 110.575L66.4426 91.4281L66.7139 91.2315L67.006 91.3691L71.5335 93.6101L100.744 108.059L99.9926 108.609L92.7318 76.3506L92.6274 75.8395H93.1699L131.54 70.1584L131.373 71.0234L101.537 54.4126L101.14 54.1767L101.37 53.8229C107.629 43.7974 113.429 34.3027 118.812 25.5551L119.313 26.1251L89.4769 37.0548L89.0388 37.2121V36.7796C87.6617 23.1568 86.4724 11.3622 85.5127 1.9068L85.9509 2.04441L69.4054 18.262L65.1282 22.4295C64.1893 23.2944 63.6885 23.7072 63.6885 23.7072Z" fill="black"/>
<path d="M14.72 110.889C14.72 112.211 14.304 113.503 13.5245 114.602C12.745 115.702 11.6371 116.558 10.3408 117.064C9.04459 117.57 7.61824 117.702 6.24216 117.444C4.86608 117.187 3.60206 116.55 2.60996 115.615C1.61786 114.681 0.942255 113.49 0.668536 112.193C0.394816 110.897 0.535303 109.553 1.07222 108.331C1.60914 107.11 2.51837 106.066 3.68495 105.332C4.85154 104.598 6.22308 104.206 7.62612 104.206C8.55771 104.206 9.48015 104.378 10.3408 104.714C11.2015 105.05 11.9835 105.543 12.6423 106.163C13.301 106.784 13.8235 107.521 14.18 108.331C14.5365 109.142 14.72 110.011 14.72 110.889Z" fill="white"/>
<path d="M14.72 110.889C14.6157 110.889 14.6157 110.3 14.2819 109.297C13.828 107.921 12.9221 106.717 11.6947 105.857C10.7991 105.254 9.76128 104.866 8.67074 104.725C7.58021 104.585 6.4698 104.697 5.43539 105.051C4.17221 105.495 3.08322 106.292 2.31436 107.336C1.54549 108.379 1.13344 109.619 1.13344 110.889C1.13344 112.16 1.54549 113.4 2.31436 114.443C3.08322 115.486 4.17221 116.284 5.43539 116.728C6.4698 117.082 7.58021 117.194 8.67074 117.053C9.76128 116.913 10.7991 116.525 11.6947 115.922C12.9221 115.062 13.828 113.858 14.2819 112.482C14.6157 111.479 14.6157 110.889 14.72 110.889C14.8749 111.437 14.8749 112.013 14.72 112.56C14.3893 114.112 13.4879 115.504 12.1746 116.492C11.1845 117.228 10.0124 117.715 8.768 117.907C7.5236 118.1 6.24766 117.992 5.05981 117.593C3.58195 117.109 2.3007 116.203 1.39396 115.002C0.487223 113.801 0 112.363 0 110.889C0 109.415 0.487223 107.978 1.39396 106.777C2.3007 105.575 3.58195 104.67 5.05981 104.186C6.24766 103.787 7.5236 103.679 8.768 103.871C10.0124 104.064 11.1845 104.551 12.1746 105.287C13.4879 106.274 14.3893 107.666 14.72 109.218C14.8749 109.766 14.8749 110.342 14.72 110.889Z" fill="black"/>
<path d="M67.194 38.1163L65.7753 59.4842C65.7159 60.3294 65.3314 61.1252 64.6938 61.7224C64.0561 62.3195 63.2092 62.677 62.3118 62.7278C61.3687 62.7786 60.4408 62.4869 59.719 61.9129C58.9971 61.3388 58.5362 60.526 58.431 59.6415L55.9273 38.1753C55.8797 37.7919 55.9196 37.4033 56.0442 37.0356C56.1688 36.6678 56.3752 36.3294 56.6497 36.0428C56.9242 35.7563 57.2605 35.5282 57.636 35.3739C58.0116 35.2196 58.4178 35.1426 58.8274 35.148H64.3565C64.755 35.1517 65.1484 35.2334 65.5117 35.3879C65.875 35.5423 66.2003 35.7661 66.467 36.0451C66.7338 36.3241 66.9361 36.6523 67.0613 37.0088C67.1864 37.3653 67.2316 37.7425 67.194 38.1163Z" fill="black"/>
<path d="M56.3026 74.8173C56.6471 75.7951 57.2917 76.6547 58.1548 77.2873C59.0179 77.92 60.0608 78.2973 61.1515 78.3716C62.2422 78.4459 63.3318 78.2137 64.2824 77.7046C65.2331 77.1954 66.0022 76.4321 66.4924 75.5111C66.9826 74.5901 67.172 73.5528 67.0365 72.5305C66.901 71.5081 66.4468 70.5465 65.7313 69.7674C65.0158 68.9882 64.0711 68.4265 63.0167 68.1532C61.9624 67.8799 60.8456 67.9073 59.8078 68.2319C59.1171 68.4452 58.4781 68.7852 57.9275 69.2323C57.3769 69.6794 56.9257 70.2248 56.5998 70.837C56.274 71.4491 56.08 72.116 56.029 72.7991C55.978 73.4822 56.0709 74.1681 56.3026 74.8173Z" fill="black"/>
</svg>
