<svg width="20" height="24" viewBox="0 0 20 24" fill="none" xmlns="http://www.w3.org/2000/svg">
<path fill-rule="evenodd" clip-rule="evenodd" d="M9.99998 2.375C5.94462 2.375 2.70831 5.54514 2.70831 9.3936C2.70831 11.7323 3.66606 13.7492 5.37454 15.0054C5.75109 15.2822 6.07323 15.6951 6.1966 16.2189C6.29786 16.6488 6.41374 17.1726 6.52853 17.7278H13.4714C13.5862 17.1726 13.7021 16.6488 13.8034 16.2189C13.9267 15.6951 14.2489 15.2822 14.6254 15.0054C16.3339 13.7492 17.2916 11.7323 17.2916 9.3936C17.2916 5.54514 14.0553 2.375 9.99998 2.375ZM13.1368 19.4778H6.86314C6.99195 20.2216 7.09301 20.9261 7.12361 21.4318C7.15582 21.9643 7.55378 22.4415 8.14056 22.5683L8.3692 22.6177C9.44304 22.8497 10.5569 22.8497 11.6308 22.6177L11.8594 22.5683C12.4462 22.4415 12.8441 21.9643 12.8764 21.4318C12.907 20.9261 13.008 20.2216 13.1368 19.4778ZM0.958313 9.3936C0.958313 4.52302 5.03469 0.625 9.99998 0.625C14.9653 0.625 19.0416 4.52302 19.0416 9.3936C19.0416 12.2214 17.8708 14.7913 15.662 16.4153C15.5613 16.4894 15.5192 16.5673 15.5067 16.6201C15.3686 17.2065 15.2004 17.9826 15.047 18.7701C14.8337 19.8647 14.6601 20.9264 14.6232 21.5375C14.5414 22.8887 13.5473 23.994 12.229 24.2788L12.0003 24.3282C10.6829 24.6128 9.31704 24.6128 7.99963 24.3282L7.77099 24.2788C6.45262 23.994 5.45855 22.8887 5.3768 21.5375C5.33983 20.9264 5.16622 19.8647 4.95297 18.7701C4.79956 17.9826 4.63133 17.2065 4.49321 16.6201C4.48078 16.5673 4.43866 16.4894 4.33792 16.4153C2.12914 14.7913 0.958313 12.2214 0.958313 9.3936Z" fill="#9A9A9A"/>
</svg>
