<svg width="24" height="24" viewBox="0 0 24 24" fill="none" xmlns="http://www.w3.org/2000/svg">
<path d="M18.4417 5.5984C19.2889 5.5984 19.9762 6.28729 19.9762 7.13284V16.8559C19.9762 17.7079 19.2857 18.4 18.4321 18.4H5.56341C4.71146 18.4 4.01935 17.7095 4.01935 16.8559V7.14084C4.01935 6.2889 4.70986 5.5968 5.56181 5.5968H18.4417V5.5984ZM18.4417 4H5.56501C3.82915 4 2.42255 5.40658 2.42255 7.14244V16.8575C2.42255 18.5934 3.82915 20 5.56501 20H18.4337C20.1696 20 21.5762 18.5934 21.5762 16.8575V7.13444C21.5762 5.40338 20.1728 4 18.4417 4Z" fill="#9A9A9A"/>
<path d="M12.0018 12.0205C11.3689 12.0205 10.7375 11.9006 10.234 11.6592L6.50331 9.87698C6.12289 9.69477 5.9135 9.25363 6.06215 8.86042C6.22998 8.41607 6.73667 8.21786 7.15545 8.41766L10.9229 10.2175C11.4887 10.4876 12.5165 10.4876 13.0823 10.2175L16.8162 8.43366C17.2366 8.23226 17.7433 8.43203 17.9095 8.87638C18.0566 9.27119 17.8472 9.71236 17.4667 9.89298L13.7712 11.6592C13.2661 11.9006 12.6332 12.0205 12.0018 12.0205Z" fill="#9A9A9A"/>
</svg>
